<svg width="35" height="35" viewBox="0 0 35 35" fill="none" xmlns="http://www.w3.org/2000/svg">
<circle cx="17.5" cy="17.5" r="16.5" stroke="white" stroke-width="2"/>
<path fill-rule="evenodd" clip-rule="evenodd" d="M17.5 5.65384C16.0005 5.65384 14.5624 6.24951 13.5021 7.30981C12.4418 8.37011 11.8461 9.80819 11.8461 11.3077C11.8461 12.8072 12.4418 14.2453 13.5021 15.3056C14.5624 16.3659 16.0005 16.9615 17.5 16.9615C18.9995 16.9615 20.4376 16.3659 21.4979 15.3056C22.5582 14.2453 23.1538 12.8072 23.1538 11.3077C23.1538 9.80819 22.5582 8.37011 21.4979 7.30981C20.4376 6.24951 18.9995 5.65384 17.5 5.65384ZM14.6731 18.375C13.1736 18.375 11.7355 18.9707 10.6752 20.031C9.6149 21.0913 9.01923 22.5293 9.01923 24.0288V25.4423C9.01923 26.192 9.31706 26.9111 9.84721 27.4412C10.3774 27.9714 11.0964 28.2692 11.8461 28.2692H23.1538C23.9036 28.2692 24.6226 27.9714 25.1528 27.4412C25.6829 26.9111 25.9808 26.192 25.9808 25.4423V24.0288C25.9808 22.5293 25.3851 21.0913 24.3248 20.031C23.2645 18.9707 21.8264 18.375 20.3269 18.375H14.6731Z" fill="white"/>
</svg>
