<svg width="23" height="23" viewBox="0 0 23 23" fill="none" xmlns="http://www.w3.org/2000/svg">
<path d="M1.95309 5.37625C1.92881 5.49935 1.91661 5.62453 1.91667 5.75V17.25C1.91667 17.7583 2.11861 18.2458 2.47805 18.6053C2.8375 18.9647 3.32501 19.1667 3.83334 19.1667H19.1667C19.675 19.1667 20.1625 18.9647 20.522 18.6053C20.8814 18.2458 21.0833 17.7583 21.0833 17.25V5.75C21.0833 5.635 21.0738 5.52192 21.0546 5.41267L20.2247 6.03558L12.6634 11.8162C12.3292 12.0717 11.9202 12.2101 11.4995 12.2101C11.0789 12.2101 10.6699 12.0717 10.3356 11.8162L2.76384 6.026L1.95309 5.37625Z" fill="white" fill-opacity="0.8"/>
<path d="M19.8155 3.94546C19.6073 3.87086 19.3878 3.83293 19.1667 3.83333H3.83333C3.6177 3.83333 3.41166 3.86879 3.21808 3.93396L3.9445 4.51567L11.5 10.2944L19.0708 4.50417L19.8155 3.94546Z" fill="white" fill-opacity="0.8"/>
</svg>
