<svg width="130" height="130" viewBox="0 0 130 130" fill="none" xmlns="http://www.w3.org/2000/svg">
<g clip-path="url(#clip0_7_51)">
<circle cx="65" cy="65" r="64" stroke="white" stroke-opacity="0.8" stroke-width="2"/>
<path fill-rule="evenodd" clip-rule="evenodd" d="M65 21C59.4305 21 54.089 23.2125 50.1508 27.1508C46.2125 31.089 44 36.4305 44 42C44 47.5695 46.2125 52.911 50.1508 56.8492C54.089 60.7875 59.4305 63 65 63C70.5695 63 75.911 60.7875 79.8492 56.8492C83.7875 52.911 86 47.5695 86 42C86 36.4305 83.7875 31.089 79.8492 27.1508C75.911 23.2125 70.5695 21 65 21ZM54.5 68.25C48.9305 68.25 43.589 70.4625 39.6508 74.4008C35.7125 78.339 33.5 83.6805 33.5 89.25V94.5C33.5 97.2848 34.6062 99.9555 36.5754 101.925C38.5445 103.894 41.2152 105 44 105H86C88.7848 105 91.4555 103.894 93.4246 101.925C95.3937 99.9555 96.5 97.2848 96.5 94.5V89.25C96.5 83.6805 94.2875 78.339 90.3492 74.4008C86.411 70.4625 81.0695 68.25 75.5 68.25H54.5Z" fill="white" fill-opacity="0.8"/>
</g>
<defs>
<clipPath id="clip0_7_51">
<rect width="130" height="130" fill="white"/>
</clipPath>
</defs>
</svg>
